FILE "Daihoushinden (1995)(JVC)(JP).img" BINARY
  TRACK 01 MODE1/2352
    INDEX 01 00:00:00
  TRACK 02 AUDIO
    PREGAP 00:02:00
    INDEX 01 36:29:72
  TRACK 03 AUDIO
    INDEX 00 38:24:49
    INDEX 01 38:26:48
  TRACK 04 AUDIO
    INDEX 00 38:50:33
    INDEX 01 38:52:32
  TRACK 05 AUDIO
    INDEX 00 39:08:38
    INDEX 01 39:10:37
  TRACK 06 AUDIO
    INDEX 00 41:38:58
    INDEX 01 41:40:57
